<svg width="542" height="427" viewBox="0 0 542 427" fill="none" xmlns="http://www.w3.org/2000/svg">
<g clip-path="url(#clip0_37_2)">
<mask id="mask0_37_2" style="mask-type:luminance" maskUnits="userSpaceOnUse" x="0" y="0" width="542" height="427">
<path d="M541.59 0H0V426.33H541.59V0Z" fill="white"/>
</mask>
<g mask="url(#mask0_37_2)">
<path d="M535.95 95.3C536.64 95.23 536.73 96.43 536.91 96.97C544.37 118.76 542.64 148.88 533.63 169.99C513.44 217.26 461.98 226.03 415.99 215.97C353.68 202.34 307.22 136.51 260.06 96.97C192.77 40.55 123.99 26.21 37.41 41.79L0 49.96C18.89 34.67 41.27 22.98 64.17 14.81C180.06 -26.5 294.79 25.45 391.96 86.46C416.09 101.61 452.13 129.34 478.74 136.42C506.97 143.93 535.94 125.48 535.95 95.3Z" fill="#253667"/>
<path d="M230.78 85.2198C230.89 85.9098 229.93 85.8898 229.44 86.0298C199.1 94.4798 177.49 102.96 153.76 124.55C119.65 155.57 88.43 219.15 134.38 254.3C188.18 295.46 285.57 245.17 312.12 190.3L317.62 179.26C317.71 204.44 308.19 229.08 294.22 249.65C257.93 303.08 186.31 337.74 121.63 332.3C37.23 325.21 -6.23997 253.24 36.38 177.02C72.57 112.3 157.6 72.5398 230.78 85.2298V85.2198Z" fill="#253667"/>
<path d="M277.81 133.19C276.18 133.55 274.68 134.73 273.34 135.68C268.16 139.36 260.16 145.64 257.27 151.28C247.6 170.11 282.64 165.72 291.72 162.94C299.27 212.93 247.51 251.57 201.66 228.76C141.78 198.97 165.74 106.79 232.94 110.17C247.27 110.89 268.97 119.88 277.33 131.99C277.61 132.4 278 132.46 277.8 133.19H277.81Z" fill="#253667"/>
<path d="M235.59 426.33L250.95 414.11C283.14 385.99 309.26 350.43 313.08 306.4C324.7 293.01 346.5 283.21 364 281.03C409.85 275.33 396.79 319.9 384.26 345.43C364.74 385.2 325.61 407.32 284.15 418.53C268.45 422.77 251.85 425.78 235.59 426.34V426.33Z" fill="#253667"/>
</g>
</g>
<defs>
<clipPath id="clip0_37_2">
<rect width="542" height="427" fill="white"/>
</clipPath>
</defs>
</svg>
